<svg width="721" height="393" viewBox="0 0 721 393" fill="none" xmlns="http://www.w3.org/2000/svg">
<path d="M644.853 3.5L653.623 34.5H567.123L644.853 3.5Z" fill="#7000FF" fill-opacity="0.4"/>
<path fill-rule="evenodd" clip-rule="evenodd" d="M720.123 237.42L652.907 35H567.375L465.123 69.8297L540.909 297.5L720.123 237.42Z" fill="#7000FF" fill-opacity="0.4"/>
<path d="M567.123 34.5H653.623L652.907 35H567.375L567.123 34.5Z" fill="#7000FF" fill-opacity="0.5"/>
<rect x="424.535" y="340.266" width="87.2517" height="87.3583" transform="rotate(-114.034 424.535 340.266)" fill="#7000FF" fill-opacity="0.15"/>
<path d="M99.123 0L87.123 33.5H199.457L99.123 0Z" fill="#7000FF" fill-opacity="0.3"/>
<path fill-rule="evenodd" clip-rule="evenodd" d="M4.57764e-05 296.863L87.7163 34H199.208L332.42 79.1623L233.624 374.907L4.57764e-05 296.863Z" fill="#7000FF" fill-opacity="0.3"/>
<path d="M199.457 33.5H87.123L87.7163 34H199.208L199.457 33.5Z" fill="#7000FF" fill-opacity="0.4"/>
<path fill-rule="evenodd" clip-rule="evenodd" d="M237.778 362.26L286.3 391.026L420.15 165.255L322.857 107.575L237.778 362.26Z" fill="#7000FF" fill-opacity="0.15"/>
</svg>
